REM MD5 a7bb480efa9237c1a7922a3298fe21a2
FILE "Moorhuhn 2 - Die Jagd Geht Weiter (Germany).bin" BINARY
  TRACK 01 MODE2/2352
    INDEX 01 00:00:00
  TRACK 02 AUDIO
    INDEX 00 03:44:60
    INDEX 01 03:46:60
  TRACK 03 AUDIO
    INDEX 00 06:04:58
    INDEX 01 06:06:58
  TRACK 04 AUDIO
    INDEX 00 06:43:30
    INDEX 01 06:45:30
REM LEADOUT 09:45:30
